<svg xmlns="http://www.w3.org/2000/svg" viewBox="0 0 512 66">
  <path fill="#f80000" d="M380.7 22c-7 0-12.8 5.7-12.8 12.8s5.7 12.8 12.8 12.8c7 0 12.7-5.7 12.7-12.8S387.8 22 380.7 22zm0 21.8c-5 0-8.7-4-8.7-9s3.7-9 8.7-9c4.9 0 8.6 4 8.6 9s-3.7 9-8.6 9zm76.2-21.3c-13.8 0-21 9.5-21 21.3s7.3 21.2 21 21.2h14.9v-4H457c-11.4 0-16.7-7.8-16.7-17.3 0-9.6 5.3-17.4 16.6-17.4h14.9v-3.8H457zm-217.4 0c-14.2 0-21.6 9.5-21.6 21.3s7.4 21.2 21.6 21.2h26.1v-3.8h-26c-11.7 0-17.3-7.8-17.3-17.3 0-9.6 5.5-17.4 17.2-17.4h26.1v-3.8h-26zm92.7.1v42.5h4.5v-18c0-.2-.1-.3-.1-.5h24.8c4.5 0 7.1-2.4 7.1-6.6 0-1.5-.3-2.7-1-3.8a8.7 8.7 0 0 0 1-4c0-4.5-2.6-7.6-7.4-7.6h-28.9zm4.5 3.8h24.4c2.4 0 3.4 1.5 3.4 3.8 0 2.5-1 4-3.6 4h-24.2v-7.7zm0 11.5h24.2c2.8 0 3.8 1.7 3.8 4 0 2.1-1 3.5-3.5 3.5h-24.5V38zM206 4.2h-26c-19.3 0-31.8 12.2-31.8 30.6 0 18.3 12.5 30.5 31.8 30.5h26c19.2 0 31.7-12.2 31.7-30.5 0-18.4-12.5-30.6-31.7-30.6zm-.1 8.5c13.8 0 22.8 9 22.8 22.1 0 13-9 22-22.8 22H180c-13.8 0-22.8-9-22.8-22 0-13.1 9-22 22.8-22H206zM298 22.5l-27.5 42.8h5l8.5-13.2c.1-.2.2-.2.3-.2h28.2c.2 0 .3 0 .4.2l8.5 13.2h5L298.7 22.5h-.6zm-.3 8.4l.2.3 11.2 17.4h-22.6L297.7 31zm212.4-8.4h-28.4v42.8h30.5v-3.8h-26V45.2h21.5v-3.8h-21.5V26.3h24v-3.8zM78.9 22.6C70.6 13 59 8.2 45.6 8.2H0v3.9h45.6c12 0 22.3 4.2 29.6 12.6a35.3 35.3 0 0 1 0 40.6c-7.3 8.4-17.5 12.6-29.6 12.6H0v3.8h45.6c13.4 0 25-4.6 33.3-14.3 8.5-9.8 8.5-25 0-34.8zm37-14.4H70.3c-13.4 0-25 4.7-33.3 14.3a39 39 0 0 0 0 34.8c8.4 9.7 20 14.3 33.3 14.3h45.6v-3.8H70.3c-12 0-22.3-4.2-29.6-12.6a35.3 35.3 0 0 1 0-40.6c7.3-8.4 17.5-12.6 29.6-12.6h45.6V8.2z"/>
</svg>