<svg width="24" height="24" viewBox="0 0 24 24" fill="none" xmlns="http://www.w3.org/2000/svg">
<path d="M6.44784 8.96942C6.76219 6.14032 9.15349 4 12 4V4C14.8465 4 17.2378 6.14032 17.5522 8.96942L17.804 11.2356C17.8072 11.2645 17.8088 11.279 17.8104 11.2933C17.9394 12.4169 18.3051 13.5005 18.8836 14.4725C18.8909 14.4849 18.8984 14.4973 18.9133 14.5222L19.4914 15.4856C20.0159 16.3599 20.2782 16.797 20.2216 17.1559C20.1839 17.3946 20.061 17.6117 19.8757 17.7668C19.5971 18 19.0873 18 18.0678 18H5.93223C4.91268 18 4.40291 18 4.12434 17.7668C3.93897 17.6117 3.81609 17.3946 3.77841 17.1559C3.72179 16.797 3.98407 16.3599 4.50862 15.4856L5.08665 14.5222C5.10161 14.4973 5.10909 14.4849 5.11644 14.4725C5.69488 13.5005 6.06064 12.4169 6.18959 11.2933C6.19123 11.279 6.19283 11.2645 6.19604 11.2356L6.44784 8.96942Z" stroke="#222222" stroke-width="2"/>
<path d="M9.10222 18.4059C9.27315 19.1501 9.64978 19.8077 10.1737 20.2767C10.6976 20.7458 11.3396 21 12 21C12.6604 21 13.3024 20.7458 13.8263 20.2767C14.3502 19.8077 14.7269 19.1501 14.8978 18.4059" stroke="#222222" stroke-width="2" stroke-linecap="round"/>
<circle cx="7" cy="7" r="7" fill="#EF1717"/>
<path d="M4.84961 6.47461L5.23535 2.89062H9.05371V3.91602H6.22168L6.02637 5.61523C6.35514 5.42643 6.72624 5.33203 7.13965 5.33203C7.81673 5.33203 8.34245 5.5485 8.7168 5.98145C9.0944 6.41439 9.2832 6.99707 9.2832 7.72949C9.2832 8.45215 9.07487 9.02832 8.6582 9.45801C8.24154 9.88444 7.67025 10.0977 6.94434 10.0977C6.29329 10.0977 5.75293 9.91374 5.32324 9.5459C4.89681 9.1748 4.66569 8.68652 4.62988 8.08105H5.77734C5.82292 8.42611 5.94661 8.69141 6.14844 8.87695C6.35026 9.05924 6.61393 9.15039 6.93945 9.15039C7.30404 9.15039 7.58724 9.02018 7.78906 8.75977C7.99414 8.49935 8.09668 8.14453 8.09668 7.69531C8.09668 7.26237 7.98438 6.92057 7.75977 6.66992C7.53516 6.41602 7.22591 6.28906 6.83203 6.28906C6.61719 6.28906 6.4349 6.31836 6.28516 6.37695C6.13542 6.43229 5.97266 6.54297 5.79688 6.70898L4.84961 6.47461Z" fill="white"/>
</svg>
