<svg width="16" height="17" viewBox="0 0 16 17" fill="none" xmlns="http://www.w3.org/2000/svg">
<g id="24/filter">
<path id="Vector" d="M3.8601 4.02979H12.1616C12.2535 4.06204 12.3369 4.11491 12.4053 4.18436C12.4736 4.25381 12.5252 4.33798 12.556 4.43044C12.5868 4.5229 12.5961 4.62118 12.5831 4.71776C12.57 4.81435 12.5351 4.90666 12.4808 4.98765L9.28798 8.4998V12.9698L6.73368 11.0541V8.4998L3.54081 4.98765C3.48659 4.90666 3.45163 4.81435 3.4386 4.71776C3.42556 4.62118 3.43481 4.5229 3.46563 4.43044C3.49645 4.33798 3.54802 4.25381 3.6164 4.18436C3.68477 4.11491 3.76813 4.06204 3.8601 4.02979Z" stroke="#727476" stroke-width="0.957861" stroke-linecap="round" stroke-linejoin="round"/>
</g>
</svg>
