<svg width="20" height="20" viewBox="0 0 20 20" fill="none" xmlns="http://www.w3.org/2000/svg">
<path   d="M5.2348 2.12506C4.36495 3.01102 4.36495 4.44465 5.25091 5.33061L7.1839 7.2636C9.00413 9.08383 9.00413 12.0477 7.1839 13.868L3.64008 10.3242C2.72997 9.41405 2.27088 8.21398 2.27088 7.02197C2.27088 5.82996 2.72997 4.6299 3.64008 3.71978L5.21064 2.14923C5.21869 2.14117 5.22674 2.13312 5.2348 2.12506Z" fill="#005A8C"/>
<path  d="M6.78173 6.85986L5.25145 5.32958C4.3655 4.44362 4.35744 3.01804 5.23534 2.12403C6.10519 1.2703 7.4905 1.2864 8.35229 2.1482C8.78721 2.58312 9.00467 3.15496 9.00467 3.71875C9.00467 4.28254 8.78721 4.85438 8.35229 5.2893L7.98985 5.65174" fill="#005A8C"/>
<path  d="M14.3763 17.9505C15.2461 17.0645 15.2461 15.6309 14.3602 14.745L12.4272 12.812C10.6069 10.9917 10.6069 8.02782 12.4272 6.20758L15.971 9.7514C16.8811 10.6615 17.3402 11.8616 17.3402 13.0536C17.3402 14.2456 16.8811 15.4457 15.971 16.3558L14.4004 17.9263C14.3843 17.9424 14.3763 17.9505 14.3763 17.9505Z" fill="#005A8C"/>
<path  d="M12.8218 13.2227L14.3521 14.7529C15.238 15.6389 15.2461 17.0645 14.3682 17.9585C13.4983 18.8122 12.113 18.7961 11.2512 17.9343C10.8163 17.4994 10.5988 16.9276 10.5988 16.3638C10.5988 15.8 10.8163 15.2281 11.2512 14.7932L11.6217 14.4227" fill="#005A8C"/>
</svg>
